# xmcd CD database file
#
# Track frame offsets:
#	150
#	17610
#	31467
#	48635
#	69942
#	87475
#	101027
#	121582
#	136905
#	154382
#	178500
#	199557
#	217300
#	235135
#	260635
#	279132
#	295195
#	309477
#
# Disc length: 4338 seconds
#
# Revision: 0
# Processed by: cddbd v1.4PL0 Copyright (c) Steve Scherf et al.
# Submitted via: CDex 1.50Beta7
#
DISCID=0210f012
DTITLE=Various Artist - Danish Trad Jazz 3
DYEAR=1900
DGENRE=Jazz
TTITLE0=Vestre Jazzværk - On the sunny side of the street
TTITLE1=Papa Bue - The song is ended
TTITLE2=Ricardos Jazzmen - Jeepers creepers
TTITLE3=Gentlemen of Jazz - Down in the jungle
TTITLE4=Doc Houlind - Mack the knife
TTITLE5=Loenardo Pedersens Jazzband - Perdido
TTITLE6=Theis_Nyegards Jazzband - I got the right to sing the blues
TTITLE7=Pee Dee Jazzband - When Irish eyes are smiling
TTITLE8=Fessors Big City Band - Hello Dolly
TTITLE9=Gene Connors_Peter Nissen - You are my sunshine
TTITLE10=Dølle_Hasemann - Gloryland
TTITLE11=Hans Knudsens Jumpband - Ain't nobody's business
TTITLE12=Peruna Jazzmen - Find me at the greasy spoon
TTITLE13=Æ Bindstouw Jazzmen - Listen to the mockingbird
TTITLE14=Neanders Jazzband - Bill Bailey
TTITLE15=Bajazzerne - Tiger rag
TTITLE16=Kansas City Stompers - Nobody knows you when ...
TTITLE17=Acker Bilk_Fessor_Gentlemen of Jazz - The old viking
EXTD=
EXTT0=
EXTT1=
EXTT2=
EXTT3=
EXTT4=
EXTT5=
EXTT6=
EXTT7=
EXTT8=
EXTT9=
EXTT10=
EXTT11=
EXTT12=
EXTT13=
EXTT14=
EXTT15=
EXTT16=
EXTT17=
PLAYORDER=
